<svg width="18" height="20" viewBox="0 0 18 20" fill="none" xmlns="http://www.w3.org/2000/svg">
<path fill-rule="evenodd" clip-rule="evenodd" d="M15.5692 13.6097C15.0386 13.061 14.1884 12.2747 13.5316 12.2621C13.132 12.2545 12.7148 12.6366 12.3022 12.999C12.2198 13.0528 11.5908 13.5341 11.5117 13.5673C11.094 13.7392 10.1777 13.8748 9.5655 13.4169C8.97593 12.9746 8.02913 12.1402 7.25405 11.3661C6.50671 10.5631 5.7088 9.58682 5.28883 8.98013C4.8511 8.35176 5.01965 7.44014 5.20435 7.02692C5.23821 6.95248 5.68264 6.37308 5.78167 6.23881L5.80015 6.25705C6.17684 5.85689 6.57253 5.44908 6.57947 5.05272C6.59004 4.39299 5.83579 3.51544 5.30516 2.96561C4.77441 2.41467 3.93923 1.44017 2.97185 1.69481C2.60756 1.79019 2.30269 1.95672 2.00839 2.18055L1.99861 2.17149C1.9824 2.18679 1.96645 2.20237 1.95075 2.21822L1.92508 2.23559L1.92883 2.23968C1.76334 2.40134 1.28944 2.85016 1.23637 2.90981C0.660452 3.55729 -0.15346 5.02383 0.852968 7.396C1.59998 9.15883 3.00517 11.1723 4.83881 13.1644L4.83093 13.1731C4.92057 13.2691 5.01132 13.3549 5.10387 13.4472C5.19121 13.5424 5.27735 13.6365 5.36675 13.7303L5.37681 13.7213C7.30021 15.6262 9.26133 17.1034 10.9931 17.9129C13.3245 19.0018 14.8166 18.2379 15.4843 17.6861C15.5469 17.6333 16.0171 17.1703 16.1769 17.0171L16.1817 17.0211C16.1875 17.0137 16.1909 17.0044 16.1989 16.9968C16.2133 16.983 16.2276 16.9691 16.2418 16.9551L16.2343 16.9469C16.4699 16.6586 16.6513 16.3581 16.7596 15.9924C17.0428 15.0303 16.0999 14.1606 15.5692 13.6097Z" fill="#393939"/>
</svg>
